<svg width="204" height="92" viewBox="0 0 204 92" fill="none" xmlns="http://www.w3.org/2000/svg">
<path d="M64.4716 85.5544C64.4716 85.8679 64.5451 86.1409 64.6921 86.3731C64.8391 86.6054 65.0718 86.797 65.3903 86.948C65.6965 87.0874 66.0823 87.1571 66.5477 87.1571C67.2582 87.1571 67.8216 87.0003 68.238 86.6867C68.6545 86.3731 68.9117 85.9957 69.0097 85.5544C69.0832 85.206 69.0342 84.9098 68.8627 84.6659C68.6912 84.4336 68.4279 84.2304 68.0727 84.0562C67.7175 83.8936 67.2949 83.7368 66.805 83.5858C66.3518 83.4581 65.9231 83.3187 65.5189 83.1677C65.1147 83.0284 64.7656 82.8484 64.4716 82.6277C64.1777 82.407 63.9633 82.1167 63.8286 81.7567C63.7061 81.4083 63.7061 80.9727 63.8286 80.4501C63.9633 79.7533 64.2573 79.1668 64.7105 78.6906C65.1637 78.2029 65.7148 77.837 66.364 77.5931C67.0254 77.3492 67.7542 77.2273 68.5504 77.2273C69.224 77.2273 69.8181 77.3144 70.3325 77.4886C70.8347 77.6512 71.2389 77.9067 71.5451 78.2551C71.8391 78.6035 72.0228 79.0274 72.0963 79.5268L70.1304 80.1017C70.1059 79.8694 70.0141 79.6546 69.8548 79.4571C69.6834 79.2713 69.4568 79.1261 69.1751 79.0216C68.8933 78.9171 68.581 78.859 68.238 78.8474C67.8583 78.8358 67.5031 78.8823 67.1724 78.9868C66.8417 79.1029 66.56 79.2771 66.3273 79.5094C66.0946 79.7301 65.9476 79.9914 65.8863 80.2933C65.8251 80.6069 65.8741 80.8624 66.0333 81.0598C66.2048 81.2573 66.4436 81.4141 66.7498 81.5302C67.0683 81.6579 67.4174 81.7857 67.7971 81.9135C68.238 82.0412 68.679 82.1922 69.1199 82.3664C69.5609 82.529 69.9528 82.738 70.2958 82.9935C70.6388 83.249 70.8898 83.5684 71.0491 83.9517C71.1961 84.3465 71.2083 84.8343 71.0858 85.415C70.9633 86.0422 70.6939 86.6112 70.2774 87.1222C69.8732 87.6216 69.3282 88.0223 68.6422 88.3243C67.9686 88.6262 67.1847 88.7772 66.2905 88.7772C65.5311 88.7772 64.8697 88.6727 64.3063 88.4636C63.7428 88.2546 63.3019 87.9526 62.9834 87.5577C62.665 87.1629 62.4996 86.6983 62.4874 86.1641L64.4716 85.5544Z" fill="#E32320"/>
<path d="M78.6554 88.7772C77.8225 88.7772 77.1305 88.603 76.5793 88.2546C76.0403 87.9061 75.6545 87.4242 75.4218 86.8087C75.2013 86.1931 75.1768 85.4731 75.3483 84.6485C75.5198 83.8239 75.8505 83.0981 76.3404 82.4709C76.8304 81.8438 77.4306 81.3502 78.141 80.9901C78.8391 80.6417 79.6047 80.4675 80.4376 80.4675C81.3195 80.4675 82.0605 80.665 82.6607 81.0598C83.2486 81.4431 83.6161 81.9715 83.763 82.6451L81.889 83.2026C81.8278 82.8658 81.6379 82.5987 81.3195 82.4012C81.001 82.1922 80.6213 82.0877 80.1803 82.0877C79.7271 82.0877 79.3107 82.198 78.931 82.4186C78.5513 82.6277 78.2267 82.918 77.9572 83.2897C77.7 83.6729 77.5224 84.1201 77.4244 84.6311C77.2652 85.4092 77.3387 86.0247 77.6449 86.4777C77.9511 86.919 78.4533 87.1397 79.1515 87.1397C79.5802 87.1397 79.9966 87.0467 80.4008 86.8609C80.805 86.6751 81.1296 86.4138 81.3746 86.077L82.973 86.6345C82.5198 87.2732 81.9013 87.79 81.1174 88.1849C80.3457 88.5798 79.525 88.7772 78.6554 88.7772Z" fill="#E32320"/>
<path d="M89.0544 80.5722H90.9836L89.2933 88.6728H87.3641L89.0544 80.5722ZM90.3038 79.3354C89.9486 79.3354 89.673 79.225 89.477 79.0044C89.281 78.7721 89.2198 78.4992 89.2933 78.1856C89.3668 77.8488 89.5444 77.5701 89.8261 77.3494C90.12 77.1171 90.4385 77.001 90.7815 77.001C91.1367 77.001 91.4061 77.1171 91.5899 77.3494C91.7858 77.5701 91.8471 77.8488 91.7736 78.1856C91.7124 78.4992 91.5347 78.7721 91.2408 79.0044C90.9468 79.225 90.6345 79.3354 90.3038 79.3354Z" fill="#E32320"/>
<path fill-rule="evenodd" clip-rule="evenodd" d="M98.3143 88.7772C97.4569 88.7772 96.7465 88.603 96.1831 88.2546C95.6196 87.8945 95.2216 87.3951 94.9888 86.7564C94.7561 86.1176 94.7255 85.386 94.897 84.5614C95.0685 83.7717 95.3992 83.069 95.8891 82.4535C96.3668 81.838 96.9547 81.3502 97.6529 80.9901C98.3633 80.6417 99.1105 80.4675 99.8944 80.4675C100.715 80.4675 101.395 80.6301 101.934 80.9553C102.485 81.2921 102.865 81.7625 103.073 82.3664C103.293 82.9587 103.33 83.6497 103.183 84.4395C103.146 84.5672 103.11 84.7066 103.073 84.8575C103.024 84.9969 102.963 85.1479 102.889 85.3105H96.8261C96.8016 85.7054 96.8629 86.0363 97.0098 86.3035C97.1568 86.5706 97.365 86.7796 97.6345 86.9306C97.9162 87.0816 98.2653 87.1571 98.6818 87.1571C99.135 87.1571 99.5698 87.0642 99.9862 86.8783C100.415 86.6925 100.727 86.4544 100.923 86.1641L102.522 86.6867C102.044 87.3371 101.432 87.8481 100.684 88.2197C99.9495 88.5914 99.1595 88.7772 98.3143 88.7772ZM101.18 83.8297C101.254 83.4929 101.223 83.191 101.089 82.9238C100.954 82.6567 100.758 82.4419 100.501 82.2793C100.243 82.1283 99.9311 82.0528 99.5637 82.0528C99.2452 82.0528 98.9267 82.1283 98.6083 82.2793C98.2898 82.4303 98.0081 82.6335 97.7631 82.889C97.5182 83.1561 97.3222 83.4697 97.1752 83.8297H101.18Z" fill="#E32320"/>
<path d="M108.511 80.572H110.257V81.3734C110.6 81.0831 110.985 80.8624 111.414 80.7114C111.831 80.5488 112.272 80.4675 112.737 80.4675C113.386 80.4675 113.925 80.5953 114.354 80.8508C114.782 81.1179 115.076 81.507 115.236 82.018C115.383 82.529 115.377 83.1677 115.217 83.9342L114.225 88.6727H112.278L113.215 84.1956C113.374 83.5103 113.343 82.9935 113.123 82.6451C112.902 82.2967 112.504 82.1225 111.929 82.1225C111.341 82.1225 110.857 82.3025 110.477 82.6625C110.085 83.0109 109.822 83.5278 109.687 84.213L108.75 88.6727H106.821L108.511 80.572Z" fill="#E32320"/>
<path d="M122.75 88.7772C121.917 88.7772 121.231 88.603 120.692 88.2546C120.141 87.9061 119.755 87.4242 119.535 86.8087C119.314 86.1931 119.29 85.4731 119.461 84.6485C119.633 83.8239 119.964 83.0981 120.454 82.4709C120.943 81.8438 121.537 81.3502 122.236 80.9901C122.946 80.6417 123.718 80.4675 124.551 80.4675C125.42 80.4675 126.155 80.665 126.755 81.0598C127.356 81.4431 127.729 81.9715 127.876 82.6451L126.002 83.2026C125.929 82.8658 125.733 82.5987 125.414 82.4012C125.108 82.1922 124.734 82.0877 124.293 82.0877C123.828 82.0877 123.405 82.198 123.026 82.4186C122.646 82.6277 122.328 82.918 122.07 83.2897C121.801 83.6729 121.617 84.1201 121.519 84.6311C121.36 85.4092 121.433 86.0247 121.74 86.4777C122.046 86.919 122.548 87.1397 123.246 87.1397C123.675 87.1397 124.091 87.0467 124.496 86.8609C124.9 86.6751 125.23 86.4138 125.488 86.077L127.068 86.6345C126.615 87.2732 126.002 87.79 125.23 88.1849C124.459 88.5798 123.632 88.7772 122.75 88.7772Z" fill="#E32320"/>
<path fill-rule="evenodd" clip-rule="evenodd" d="M135.005 88.7772C134.16 88.7772 133.449 88.603 132.873 88.2546C132.31 87.8945 131.912 87.3951 131.679 86.7564C131.447 86.1176 131.416 85.386 131.587 84.5614C131.759 83.7717 132.09 83.069 132.58 82.4535C133.057 81.838 133.651 81.3502 134.362 80.9901C135.06 80.6417 135.801 80.4675 136.585 80.4675C137.405 80.4675 138.085 80.6301 138.624 80.9553C139.175 81.2921 139.561 81.7625 139.782 82.3664C139.99 82.9587 140.021 83.6497 139.874 84.4395C139.837 84.5672 139.8 84.7066 139.763 84.8575C139.714 84.9969 139.653 85.1479 139.58 85.3105H133.517C133.504 85.7054 133.566 86.0363 133.7 86.3035C133.847 86.5706 134.062 86.7796 134.343 86.9306C134.613 87.0816 134.956 87.1571 135.372 87.1571C135.825 87.1571 136.26 87.0642 136.677 86.8783C137.105 86.6925 137.418 86.4544 137.614 86.1641L139.212 86.6867C138.734 87.3371 138.122 87.8481 137.375 88.2197C136.64 88.5914 135.85 88.7772 135.005 88.7772ZM137.871 83.8297C137.944 83.4929 137.914 83.191 137.779 82.9238C137.657 82.6567 137.461 82.4419 137.191 82.2793C136.934 82.1283 136.622 82.0528 136.254 82.0528C135.936 82.0528 135.617 82.1283 135.299 82.2793C134.98 82.4303 134.699 82.6335 134.454 82.889C134.209 83.1561 134.013 83.4697 133.866 83.8297H137.871Z" fill="#E32320"/>
<path d="M153.231 85.5544C153.231 85.8679 153.304 86.1409 153.451 86.3731C153.598 86.6054 153.825 86.797 154.131 86.948C154.437 87.0874 154.823 87.1571 155.288 87.1571C156.011 87.1571 156.581 87.0003 156.997 86.6867C157.413 86.3731 157.665 85.9957 157.75 85.5544C157.836 85.206 157.793 84.9098 157.622 84.6659C157.45 84.4336 157.187 84.2304 156.832 84.0562C156.464 83.8936 156.035 83.7368 155.546 83.5858C155.105 83.4581 154.682 83.3187 154.278 83.1677C153.874 83.0284 153.525 82.8484 153.231 82.6277C152.937 82.407 152.722 82.1167 152.588 81.7567C152.453 81.4083 152.453 80.9727 152.588 80.4501C152.722 79.7533 153.01 79.1668 153.451 78.6906C153.904 78.2029 154.462 77.837 155.123 77.5931C155.784 77.3492 156.513 77.2273 157.309 77.2273C157.983 77.2273 158.571 77.3144 159.073 77.4886C159.588 77.6512 159.992 77.9067 160.286 78.2551C160.592 78.6035 160.776 79.0274 160.837 79.5268L158.871 80.1017C158.859 79.8694 158.767 79.6546 158.595 79.4571C158.436 79.2713 158.21 79.1261 157.916 79.0216C157.634 78.9171 157.322 78.859 156.979 78.8474C156.611 78.8358 156.262 78.8823 155.931 78.9868C155.601 79.1029 155.319 79.2771 155.086 79.5094C154.853 79.7301 154.707 79.9914 154.645 80.2933C154.572 80.6069 154.621 80.8624 154.792 81.0598C154.951 81.2573 155.19 81.4141 155.509 81.5302C155.815 81.6579 156.158 81.7857 156.538 81.9135C156.979 82.0412 157.426 82.1922 157.879 82.3664C158.32 82.529 158.712 82.738 159.055 82.9935C159.398 83.249 159.643 83.5684 159.79 83.9517C159.949 84.3465 159.967 84.8343 159.845 85.415C159.71 86.0422 159.441 86.6112 159.036 87.1222C158.62 87.6216 158.075 88.0223 157.401 88.3243C156.728 88.6262 155.937 88.7772 155.031 88.7772C154.284 88.7772 153.629 88.6727 153.065 88.4636C152.502 88.2546 152.061 87.9526 151.742 87.5577C151.424 87.1629 151.252 86.6983 151.228 86.1641L153.231 85.5544Z" fill="#E32320"/>
<path fill-rule="evenodd" clip-rule="evenodd" d="M168.811 88.6727L168.847 87.6797C168.504 88.0281 168.125 88.2952 167.708 88.481C167.292 88.6552 166.771 88.7423 166.147 88.7423C165.559 88.7423 165.069 88.6494 164.677 88.4636C164.285 88.2778 164.003 88.0165 163.832 87.6797C163.672 87.3313 163.642 86.9306 163.74 86.4777C163.887 85.8041 164.266 85.235 164.879 84.7704C165.504 84.3175 166.343 84.0388 167.396 83.9342L169.693 83.6904L169.821 83.0632C169.882 82.8077 169.815 82.5754 169.619 82.3664C169.411 82.1573 169.05 82.0528 168.535 82.0528C168.082 82.0528 167.672 82.1573 167.304 82.3664C166.924 82.5754 166.624 82.889 166.404 83.3071L164.861 82.7322C165.228 82.0122 165.773 81.4547 166.496 81.0598C167.218 80.665 168.045 80.4675 168.976 80.4675C170.078 80.4675 170.856 80.7288 171.309 81.2515C171.75 81.7857 171.885 82.4593 171.714 83.2723L170.574 88.6727H168.811ZM169.399 85.1014L167.286 85.3627C166.857 85.4092 166.514 85.5253 166.257 85.7111C165.987 85.8854 165.834 86.106 165.798 86.3731C165.736 86.617 165.791 86.8319 165.963 87.0177C166.134 87.1919 166.404 87.279 166.771 87.279C167.249 87.279 167.665 87.1977 168.021 87.0351C168.376 86.8841 168.664 86.6519 168.884 86.3383C169.105 86.0363 169.27 85.6647 169.38 85.2234L169.399 85.1014Z" fill="#E32320"/>
<path d="M182.976 80.572H185.015L177.611 91.9129H175.7L177.979 88.4287L176.27 80.572H178.438L179.467 86.3034L182.976 80.572Z" fill="#E32320"/>
<path d="M189.094 86.0596C189.094 86.3731 189.18 86.6054 189.351 86.7564C189.511 86.9074 189.707 87.0177 189.939 87.0874C190.172 87.1455 190.399 87.1745 190.619 87.1745C191.06 87.1745 191.428 87.0874 191.722 86.9132C192.003 86.7506 192.169 86.5473 192.218 86.3035C192.267 86.0828 192.224 85.9086 192.089 85.7808C191.942 85.6647 191.74 85.5718 191.483 85.5021C191.238 85.4324 190.981 85.3627 190.711 85.293C190.417 85.2118 190.111 85.1246 189.792 85.0317C189.474 84.9272 189.174 84.7879 188.892 84.6137C188.623 84.4511 188.414 84.2304 188.267 83.9517C188.133 83.6845 188.108 83.3477 188.194 82.9413C188.292 82.4419 188.531 82.0063 188.911 81.6347C189.29 81.2747 189.756 80.9902 190.307 80.7811C190.87 80.5721 191.464 80.4675 192.089 80.4675C192.836 80.4675 193.461 80.6185 193.963 80.9205C194.453 81.2224 194.765 81.6637 194.9 82.2444L193.118 82.767C193.069 82.6161 192.977 82.4825 192.842 82.3664C192.72 82.2619 192.554 82.1864 192.346 82.1399C192.138 82.0935 191.936 82.0702 191.74 82.0702C191.36 82.0702 191.03 82.1399 190.748 82.2793C190.466 82.4186 190.301 82.6103 190.252 82.8542C190.227 82.9935 190.246 83.1097 190.307 83.2026C190.368 83.2955 190.466 83.3768 190.601 83.4465C190.736 83.5161 190.901 83.5742 191.097 83.6207C191.293 83.6671 191.501 83.7194 191.722 83.7775C192.052 83.8704 192.389 83.9749 192.732 84.091C193.075 84.2072 193.375 84.3523 193.632 84.5266C193.89 84.7008 194.079 84.9272 194.202 85.2059C194.324 85.4847 194.349 85.8389 194.275 86.2686C194.19 86.7332 193.963 87.1571 193.596 87.5403C193.228 87.912 192.763 88.2139 192.199 88.4462C191.624 88.6669 190.962 88.7772 190.215 88.7772C189.382 88.7772 188.702 88.6088 188.176 88.272C187.649 87.9352 187.349 87.3835 187.275 86.617L189.094 86.0596Z" fill="#E32320"/>
<path d="M199.585 88.7774C199.218 88.7774 198.936 88.6671 198.74 88.4464C198.544 88.2142 198.477 87.9238 198.538 87.5754C198.611 87.2386 198.795 86.9483 199.089 86.7044C199.383 86.4721 199.714 86.3559 200.081 86.3559C200.436 86.3559 200.712 86.4721 200.908 86.7044C201.104 86.9483 201.171 87.2386 201.11 87.5754C201.037 87.9238 200.853 88.2142 200.559 88.4464C200.265 88.6671 199.94 88.7774 199.585 88.7774ZM200.89 77.332H203.058L201.147 85.2062H199.475L200.89 77.332Z" fill="#E32320"/>
<path fill-rule="evenodd" clip-rule="evenodd" d="M51.6038 27.4215C51.6038 33.6929 49.5457 39.825 45.7916 44.668C40.5391 51.4969 37.6248 59.9633 37.6248 68.5343L37.6083 69.4576H13.9806V68.5343C13.9641 59.8414 11.1156 51.4446 5.96195 44.877C2.0432 39.9121 -0.0643632 33.6058 0.00149811 27.1079C0.0838247 19.8609 2.78414 13.0669 7.64141 7.99744C12.4987 2.92802 18.9366 0.123291 25.8027 0.123291C40.0287 0.123291 51.6038 12.37 51.6038 27.4215ZM49.8585 27.4215C49.8585 13.3804 39.0737 1.96989 25.8027 1.96989C12.6798 1.96989 1.87855 13.2585 1.73036 27.1253C1.6645 33.1703 3.64033 39.0585 7.29564 43.6924C12.5316 50.3645 15.4954 58.8135 15.7094 67.611H35.8959C36.11 58.9355 39.1231 50.4168 44.4579 43.5182C47.9321 38.9888 49.8585 33.2748 49.8585 27.4215Z" fill="black"/>
<path d="M49.8585 27.4216C49.8585 33.2749 47.9321 38.9889 44.4579 43.5183C39.1231 50.4169 36.11 58.9356 35.8959 67.6111H31.5326C31.5436 67.5994 31.5491 67.5936 31.5491 67.5936C32.0266 61.5312 40.1275 50.1033 38.3657 45.2952C37.9541 44.2325 37.1638 43.4138 36.2417 42.8215C35.863 38.3792 36.3405 33.9892 36.8345 29.5817C37.0156 27.6306 36.6698 25.7143 36.5545 23.7806C36.4558 22.6657 36.2417 20.0526 36.1758 18.9725C36.1264 17.4395 36.0441 15.6278 34.694 14.6696C32.8169 13.3282 30.5118 15.349 30.5941 17.4918C30.5612 19.0422 30.5282 21.7773 30.5118 23.3626C30.5447 27.3693 30.1331 31.5503 29.7544 35.5396C28.4207 35.6093 27.2022 36.3584 26.2966 37.3514C24.6501 37.0378 22.9377 37.7695 21.9169 39.1457C19.6117 38.9192 15.8906 40.8007 15.0838 43.1873C13.6677 49.8071 16.9773 57.1761 18.3439 63.6043C18.6732 64.9283 19.0354 66.2348 19.1507 67.5936C19.1507 67.5936 19.1507 67.5994 19.1507 67.6111H15.7094C15.4954 58.8136 12.5316 50.3646 7.29565 43.6925C3.64035 39.0586 1.66451 33.1704 1.73037 27.1254C1.87856 13.2586 12.6798 1.96997 25.8027 1.96997C39.0737 1.96997 49.8585 13.3805 49.8585 27.4216Z" fill="url(#paint0_radial_446_145)"/>
<path d="M13.9806 80.7288H37.6083V71.8442H13.9806V80.7288Z" fill="black"/>
<path d="M13.9806 88.4636H17.57C18.2286 90.5541 20.0728 92 22.2133 92H29.3757C31.5162 92 33.3603 90.5541 34.0189 88.4636H37.6083V83.1155H13.9806V88.4636Z" fill="black"/>
<path d="M31.5491 67.5938C31.5491 67.5938 31.5436 67.5996 31.5326 67.6112C31.2856 67.8725 31.1704 67.8377 31.121 67.6112C30.9728 66.5834 32.5535 61.5314 32.8004 61.061C33.5579 58.9705 34.3976 56.9149 35.2373 54.8767C36.357 51.4622 39.6829 46.0618 35.4184 43.8146C34.7434 43.5358 35.0233 40.8356 34.8751 40.0168C34.5952 36.3411 35.2044 32.6653 35.4843 29.0244C35.4184 25.5403 34.8092 21.7426 34.6775 18.241C34.6446 17.3351 34.447 15.9937 33.492 15.8195C32.6687 15.715 32.0595 16.6906 32.076 17.5268V17.7184L32.0595 18.5372C32.0266 24.4253 31.8125 30.5226 31.0716 36.3585C30.8411 37.7347 29.0464 36.0624 27.0705 38.5709L26.2966 38.7974C23.1682 38.0483 22.8225 41.2711 21.8016 40.5569C20.435 40.0343 17.4548 41.7241 16.5327 42.8564C14.4416 47.0722 17.109 54.9115 17.9817 59.4583C18.5415 61.9669 19.2165 64.4755 19.5129 67.0537C19.4965 67.1583 19.5623 67.4196 19.5294 67.6112C19.5129 67.7157 19.4635 67.8028 19.3647 67.8028C19.2495 67.8028 19.1672 67.7157 19.1507 67.6112C19.1507 67.5996 19.1507 67.5938 19.1507 67.5938C19.0354 66.235 18.6732 64.9284 18.3439 63.6044C16.9773 57.1762 13.6677 49.8073 15.0838 43.1874C15.8906 40.8008 19.6117 38.9193 21.9169 39.1458C22.9377 37.7696 24.6501 37.0379 26.2966 37.3515C27.2022 36.3585 28.4207 35.6094 29.7544 35.5397C30.1331 31.5504 30.5447 27.3694 30.5118 23.3627C30.5282 21.7774 30.5612 19.0424 30.5941 17.4919C30.5118 15.3492 32.8169 13.3284 34.694 14.6698C36.0441 15.6279 36.1264 17.4397 36.1758 18.9727C36.2417 20.0528 36.4558 22.6659 36.5545 23.7808C36.6698 25.7145 37.0156 27.6308 36.8345 29.5819C36.3405 33.9893 35.863 38.3793 36.2417 42.8216C37.1638 43.4139 37.9541 44.2326 38.3657 45.2953C40.1275 50.1034 32.0266 61.5314 31.5491 67.5938Z" fill="black"/>
<path d="M27.0869 38.5883C26.0661 39.7903 24.5183 40.3129 23.8432 41.7414C23.8432 41.846 23.6621 41.846 23.6621 41.724C23.8762 40.1387 25.3745 39.0412 26.0002 37.6998C26.5436 36.7591 27.8114 37.8044 27.0869 38.5883Z" fill="black"/>
<path d="M22.3779 40.6787C21.5711 41.4104 20.5338 41.9505 19.8422 42.717C19.6941 42.1595 20.3527 41.6195 20.6161 41.1491C21.143 40.6265 21.39 39.1632 22.312 39.5987C22.6743 39.8251 22.7072 40.4 22.3779 40.6787Z" fill="black"/>
<path d="M36.324 43.4486C36.0935 44.9642 35.5995 46.4275 35.2538 47.8038C34.8257 46.4972 35.3525 44.8074 35.0891 43.4486C34.9738 42.4556 36.4393 42.4556 36.324 43.4486Z" fill="black"/>
<path d="M31.0057 36.6893C30.7258 37.8913 29.6555 38.5881 29.211 39.6508C28.8487 39.9644 29.1122 38.8495 29.178 38.7275C29.3098 38.292 29.5403 37.6126 29.6226 37.1771C29.7214 36.5673 29.4909 35.7834 30.2483 35.6615C30.7916 35.5569 31.2197 36.1667 31.0057 36.6893Z" fill="black"/>
<path d="M32.29 17.3523C33.3438 16.9865 34.3647 17.2826 34.3647 17.2826C34.3647 17.2826 34.5293 19.3208 33.2285 19.4428C32.2571 19.5473 32.29 17.3523 32.29 17.3523Z" fill="black"/>
<path fill-rule="evenodd" clip-rule="evenodd" d="M48.3602 30.1219C48.2284 30.7664 48.0144 31.3936 47.8003 31.8988L42.8113 28.4843C42.8113 28.4843 38.2669 29.0592 32.998 23.8853C30.7917 25.9583 28.5194 26.028 28.5853 24.5647C21.6534 27.23 13.4043 34.5119 13.4043 34.5119L11.6589 32.8569C11.6589 32.8569 20.4514 25.5228 24.6336 23.8853C21.6534 24.3905 13.0914 25.9061 12.795 20.5753C12.4987 15.2795 18.4756 16.2202 22.1309 17.1609C25.7697 18.119 29.8367 20.645 29.8367 20.645C29.8367 20.645 30.7422 20.3314 31.3844 20.2792C32.0595 20.2095 33.1297 20.7147 33.1297 20.7147C33.1297 20.7147 36.7686 19.7566 41.1977 18.8158C45.6269 17.8577 47.7674 21.4115 47.7674 23.171C47.7674 24.9479 47.1088 26.4635 44.7213 27.4739L48.3602 30.1219ZM26.0661 21.5509C26.0661 21.5509 20.0892 18.6939 17.2901 18.6242C14.4745 18.572 12.087 21.0283 15.4295 22.2303C18.772 23.4498 26.0661 21.5509 26.0661 21.5509ZM43.6511 26.9165C43.6511 26.9165 46.549 26.3416 46.4502 24.826C46.3678 23.3278 44.5402 19.9656 40.7202 20.1572C36.9003 20.3314 35.4019 21.9864 35.4019 21.9864L43.6511 26.9165Z" fill="#E32320"/>
<path d="M58.4534 41.3755H63.2613V52.2808H74.3589V41.3755H79.1503V67.7852H74.3589V56.5489H63.2613V67.7852H58.4534V41.3755Z" fill="black"/>
<path d="M86.7079 46.4971C85.8517 46.4971 85.1492 46.2125 84.6004 45.6435C84.0515 45.0628 83.7771 44.3659 83.7771 43.553C83.7771 42.7284 84.0515 42.0316 84.6004 41.4625C85.1492 40.8934 85.8517 40.6089 86.7079 40.6089C87.5202 40.6089 88.2063 40.8934 88.7661 41.4625C89.3149 42.0316 89.5893 42.7284 89.5893 43.553C89.5893 44.3659 89.3149 45.0628 88.7661 45.6435C88.2063 46.2125 87.5202 46.4971 86.7079 46.4971ZM84.3863 48.9186H88.9966V67.7851H84.3863V48.9186Z" fill="black"/>
<path d="M93.9527 48.9185H98.0855L98.4148 50.8522C98.9856 50.167 99.6771 49.6328 100.489 49.2495C101.313 48.8547 102.202 48.6572 103.157 48.6572C104.584 48.6572 105.791 48.9708 106.779 49.5979C107.767 50.2251 108.519 51.1368 109.035 52.333C109.562 53.5292 109.825 55.01 109.825 56.7753V67.7851H105.264V57.3676C105.264 55.9623 104.984 54.8822 104.425 54.1273C103.865 53.3724 103.036 52.995 101.938 52.995C100.819 52.995 99.968 53.3724 99.3862 54.1273C98.8044 54.8822 98.5135 55.9913 98.5135 57.4547V67.7851H93.9527V48.9185Z" fill="black"/>
<path d="M115.209 48.9186V43.6401H119.886V48.9186H123.804V53.1867H119.886V60.8518C119.886 61.8506 120.078 62.5474 120.462 62.9423C120.835 63.3371 121.334 63.5462 121.96 63.5694C122.575 63.5926 123.201 63.552 123.837 63.4475V67.611C122.729 67.8549 121.647 67.9362 120.594 67.8549C119.551 67.762 118.629 67.4658 117.827 66.9664C117.037 66.467 116.4 65.7179 115.917 64.7192C115.445 63.7204 115.209 62.4312 115.209 60.8518V53.1867H112.707V48.9186H115.209Z" fill="black"/>
<path d="M190.846 62.3602L190.857 56.8446H191.526L196.837 50.5518H202.115L194.98 58.8846H193.89L190.846 62.3602ZM186.68 67.131V45.0254H191.278V67.131H186.68ZM197.042 67.131L192.163 59.91L195.229 56.6611L202.428 67.131H197.042Z" fill="black"/>
<path d="M174.243 67.1312V50.5519H178.701V53.4446H178.873C179.176 52.4156 179.683 51.6385 180.395 51.1132C181.108 50.5807 181.928 50.3145 182.856 50.3145C183.087 50.3145 183.335 50.3288 183.601 50.3576C183.867 50.3864 184.101 50.426 184.303 50.4764V54.5564C184.087 54.4916 183.788 54.4341 183.407 54.3837C183.025 54.3333 182.676 54.3082 182.36 54.3082C181.683 54.3082 181.079 54.4557 180.546 54.7507C180.021 55.0385 179.604 55.4415 179.294 55.9596C178.992 56.4777 178.841 57.075 178.841 57.7514V67.1312H174.243Z" fill="black"/>
<path d="M163.093 67.4549C161.416 67.4549 159.966 67.0987 158.743 66.3863C157.527 65.6667 156.588 64.6665 155.926 63.3856C155.264 62.0976 154.933 60.6044 154.933 58.9062C154.933 57.1936 155.264 55.6968 155.926 54.416C156.588 53.1279 157.527 52.1277 158.743 51.4153C159.966 50.6957 161.416 50.3359 163.093 50.3359C164.77 50.3359 166.216 50.6957 167.432 51.4153C168.655 52.1277 169.598 53.1279 170.26 54.416C170.922 55.6968 171.253 57.1936 171.253 58.9062C171.253 60.6044 170.922 62.0976 170.26 63.3856C169.598 64.6665 168.655 65.6667 167.432 66.3863C166.216 67.0987 164.77 67.4549 163.093 67.4549ZM163.114 63.8929C163.877 63.8929 164.514 63.677 165.025 63.2453C165.536 62.8063 165.921 62.2091 166.18 61.4535C166.446 60.698 166.579 59.8381 166.579 58.8738C166.579 57.9096 166.446 57.0497 166.18 56.2941C165.921 55.5385 165.536 54.9413 165.025 54.5023C164.514 54.0634 163.877 53.8439 163.114 53.8439C162.345 53.8439 161.697 54.0634 161.172 54.5023C160.654 54.9413 160.261 55.5385 159.995 56.2941C159.736 57.0497 159.607 57.9096 159.607 58.8738C159.607 59.8381 159.736 60.698 159.995 61.4535C160.261 62.2091 160.654 62.8063 161.172 63.2453C161.697 63.677 162.345 63.8929 163.114 63.8929Z" fill="black"/>
<path d="M130.952 67.131L124.627 45.0254H129.732L133.391 60.3849H133.575L137.611 45.0254H141.983L146.009 60.4173H146.203L149.862 45.0254H154.968L148.643 67.131H144.088L139.878 52.6782H139.705L135.507 67.131H130.952Z" fill="black"/>
<defs>
<radialGradient id="paint0_radial_446_145" cx="0" cy="0" r="1" gradientUnits="userSpaceOnUse" gradientTransform="translate(25.7989 34.7905) scale(27.7612 29.3719)">
<stop stop-color="#FFF0BB"/>
<stop offset="1" stop-color="#FED43F"/>
</radialGradient>
</defs>
</svg>
